<svg width="24" height="24" viewBox="0 0 24 24" fill="none" xmlns="http://www.w3.org/2000/svg">
<path fill-rule="evenodd" clip-rule="evenodd" d="M6.1 18.9998C6.32091 18.9998 6.5 18.8207 6.5 18.5998L6.5 17.3998C6.5 17.1789 6.32092 16.9998 6.1 16.9998L4.5 16.9998L4.5 6.72168L19.5 6.72168L19.5 16.9998L17.9 16.9998C17.6791 16.9998 17.5 17.1789 17.5 17.3998V18.5998C17.5 18.8207 17.6791 18.9998 17.9 18.9998L20.5 18.9998C20.7652 18.9998 21.0196 18.8945 21.2071 18.7069C21.3946 18.5194 21.5 18.265 21.5 17.9998L21.5 5.72168C21.5 5.16939 21.0523 4.72168 20.5 4.72168H3.5C2.94772 4.72168 2.5 5.16939 2.5 5.72168V17.9998C2.5 18.5521 2.94772 18.9998 3.5 18.9998L6.1 18.9998ZM11.7343 16.236C11.8858 16.1013 12.1142 16.1013 12.2657 16.236L15.7137 19.3009C15.9886 19.5452 15.8157 19.9998 15.4479 19.9998H8.55208C8.18427 19.9998 8.01143 19.5452 8.28633 19.3009L11.7343 16.236Z" fill="white"/>
</svg>
