<svg width="24" height="24" viewBox="0 0 24 24" fill="none" xmlns="http://www.w3.org/2000/svg">
<path d="M4.35667 18.4489C6.68824 17.131 9.32175 16.4404 12 16.4444C14.7778 16.4444 17.3856 17.1722 19.6433 18.4489M15.3333 9.77778C15.3333 10.6618 14.9821 11.5097 14.357 12.1348C13.7319 12.7599 12.8841 13.1111 12 13.1111C11.1159 13.1111 10.2681 12.7599 9.64298 12.1348C9.01786 11.5097 8.66667 10.6618 8.66667 9.77778C8.66667 8.89372 9.01786 8.04588 9.64298 7.42076C10.2681 6.79563 11.1159 6.44444 12 6.44444C12.8841 6.44444 13.7319 6.79563 14.357 7.42076C14.9821 8.04588 15.3333 8.89372 15.3333 9.77778ZM22 12C22 13.3132 21.7413 14.6136 21.2388 15.8268C20.7363 17.0401 19.9997 18.1425 19.0711 19.0711C18.1425 19.9997 17.0401 20.7363 15.8268 21.2388C14.6136 21.7413 13.3132 22 12 22C10.6868 22 9.38642 21.7413 8.17317 21.2388C6.95991 20.7363 5.85752 19.9997 4.92893 19.0711C4.00035 18.1425 3.26375 17.0401 2.7612 15.8268C2.25866 14.6136 2 13.3132 2 12C2 9.34784 3.05357 6.8043 4.92893 4.92893C6.8043 3.05357 9.34784 2 12 2C14.6522 2 17.1957 3.05357 19.0711 4.92893C20.9464 6.8043 22 9.34784 22 12Z" stroke="#2181E2" stroke-width="2" stroke-linecap="round" stroke-linejoin="round"/>
</svg>
