<svg width="24" height="24" viewBox="0 0 24 24" fill="none" xmlns="http://www.w3.org/2000/svg">
<path fill-rule="evenodd" clip-rule="evenodd" d="M12.9966 3.57432C12.9966 3.3534 12.8175 3.17432 12.5966 3.17432H11.3966C11.1757 3.17432 10.9966 3.3534 10.9966 3.57432V13.1164L8.9771 11.0968C8.8209 10.9406 8.56763 10.9406 8.41142 11.0968L7.56288 11.9453C7.40666 12.1015 7.40666 12.3548 7.56287 12.511L11.2927 16.2409C11.4802 16.4285 11.7346 16.5338 11.9998 16.5338C12.265 16.5338 12.5194 16.4285 12.7069 16.2409L16.4367 12.511C16.5929 12.3548 16.5929 12.1015 16.4367 11.9453L15.5882 11.0968C15.432 10.9406 15.1787 10.9406 15.0225 11.0968L12.9966 13.1228V3.57432ZM2.5 19.5477V7.26953C2.5 6.71725 2.94772 6.26953 3.5 6.26953H6.6C6.82091 6.26953 7 6.44862 7 6.66953V7.86953C7 8.09045 6.82091 8.26953 6.6 8.26953H4.5V18.5477H19.5V8.26953H17.4C17.1791 8.26953 17 8.09045 17 7.86953V6.66953C17 6.44862 17.1791 6.26953 17.4 6.26953H20.5C21.0523 6.26953 21.5 6.71725 21.5 7.26953V19.5477C21.5 20.1 21.0523 20.5477 20.5 20.5477H3.5C2.94772 20.5477 2.5 20.1 2.5 19.5477Z" fill="white"/>
</svg>