<svg width="15" height="15" viewBox="0 0 15 15" fill="none" xmlns="http://www.w3.org/2000/svg">
<path d="M2 14.7148C1.5875 14.7148 1.23437 14.568 0.940625 14.2742C0.646875 13.9805 0.5 13.6273 0.5 13.2148V2.21484C0.5 1.80234 0.646875 1.44922 0.940625 1.15547C1.23437 0.861719 1.5875 0.714844 2 0.714844H7.5V2.21484H2V13.2148H13V7.71484H14.5V13.2148C14.5 13.6273 14.3531 13.9805 14.0594 14.2742C13.7656 14.568 13.4125 14.7148 13 14.7148H2ZM5.5625 10.7148L4.5 9.65234L11.9375 2.21484H9.5V0.714844H14.5V5.71484H13V3.27734L5.5625 10.7148Z" fill="#2181E2"/>
</svg>
