<svg xmlns="http://www.w3.org/2000/svg" width="144" height="48" viewBox="0 0 144 48" fill="none">
  <g clip-path="url(#clip0_42546_23042)">
    <path d="M132.363 0.000156H11.6433C11.2032 0.000156 10.7685 0.000156 10.3296 0.002556C9.96222 0.004956 9.59777 0.011928 9.22686 0.017796C8.42108 0.0272782 7.61719 0.0981675 6.82218 0.229848C6.02829 0.364395 5.25927 0.618055 4.54112 0.982248C3.82386 1.34952 3.16847 1.82676 2.59874 2.39664C2.02602 2.96492 1.54862 3.62178 1.18488 4.34195C0.82014 5.06069 0.567229 5.83088 0.43488 6.62593C0.301273 7.41998 0.229378 8.22318 0.21984 9.02833C0.208704 9.39625 0.207528 9.7654 0.20166 10.1334V37.8705C0.207528 38.2431 0.208704 38.604 0.21984 38.9768C0.229381 39.7819 0.301276 40.585 0.43488 41.379C0.566863 42.1745 0.81979 42.9452 1.18488 43.6642C1.54845 44.382 2.02593 45.0362 2.59874 45.6014C3.16631 46.1738 3.82212 46.6513 4.54112 47.0158C5.25926 47.381 6.0282 47.6361 6.82218 47.7728C7.61732 47.9034 8.42113 47.9743 9.22686 47.9849C9.59777 47.9931 9.96222 47.9978 10.3296 47.9978C10.7685 48.0002 11.2033 48.0002 11.6433 48.0002H132.363C132.795 48.0002 133.233 48.0002 133.664 47.9978C134.03 47.9978 134.405 47.9931 134.77 47.9849C135.575 47.9749 136.377 47.9039 137.17 47.7728C137.967 47.6352 138.739 47.3801 139.46 47.0158C140.179 46.6511 140.834 46.1736 141.401 45.6014C141.972 45.034 142.451 44.3803 142.819 43.6642C143.181 42.9447 143.432 42.1741 143.562 41.379C143.696 40.5849 143.77 39.7819 143.785 38.9768C143.789 38.604 143.789 38.2431 143.789 37.8705C143.799 37.4345 143.799 37.001 143.799 36.5579V11.4435C143.799 11.0041 143.799 10.5681 143.789 10.1334C143.789 9.7654 143.789 9.39625 143.785 9.02828C143.77 8.22306 143.696 7.42004 143.562 6.62588C143.431 5.83129 143.181 5.06116 142.819 4.3419C142.078 2.89839 140.904 1.72339 139.46 0.98214C138.739 0.618837 137.967 0.365244 137.17 0.22974C136.377 0.0974793 135.575 0.0265653 134.77 0.017628C134.405 0.011772 134.03 0.00474 133.664 0.0024C133.233 0 132.795 0.000156 132.363 0.000156Z" fill="#A6A6A6"/>
    <path d="M10.3357 46.9499C9.97008 46.9499 9.6133 46.9452 9.25055 46.9371C8.49909 46.9273 7.74938 46.8619 7.00758 46.7414C6.31589 46.6222 5.64582 46.4006 5.01949 46.0839C4.3989 45.7698 3.83287 45.3579 3.34309 44.864C2.84622 44.3759 2.43255 43.8098 2.11848 43.1882C1.80095 42.5625 1.5812 41.8918 1.46688 41.1995C1.34343 40.4557 1.27664 39.7035 1.26708 38.9495C1.25947 38.6964 1.24951 37.8538 1.24951 37.8538V10.1331C1.24951 10.1331 1.26012 9.30344 1.26714 9.05969C1.27629 8.30691 1.34269 7.55591 1.46578 6.8132C1.5803 6.11903 1.80022 5.44643 2.11793 4.81868C2.43085 4.19746 2.84222 3.63096 3.3361 3.14114C3.82942 2.64667 4.39726 2.23265 5.0189 1.91418C5.6438 1.59844 6.31259 1.37841 7.00289 1.26145C7.74712 1.13973 8.49943 1.07392 9.2535 1.06458L10.3363 1.04993H133.659L134.754 1.06517C135.501 1.07405 136.247 1.13927 136.984 1.26027C137.682 1.3787 138.357 1.60027 138.989 1.91769C140.235 2.55951 141.248 3.57492 141.887 4.82161C142.2 5.44502 142.417 6.11213 142.53 6.80031C142.654 7.54912 142.724 8.30601 142.738 9.06497C142.742 9.40481 142.742 9.76985 142.742 10.1331C142.751 10.5831 142.751 11.0115 142.751 11.4433V36.5577C142.751 36.9936 142.751 37.419 142.742 37.8479C142.742 38.2382 142.742 38.5956 142.737 38.9636C142.723 39.709 142.654 40.4524 142.532 41.1878C142.42 41.885 142.201 42.5609 141.884 43.1918C141.568 43.8067 141.156 44.3678 140.665 44.8546C140.175 45.3511 139.608 45.7655 138.986 46.0816C138.356 46.4008 137.681 46.6232 136.984 46.7414C136.243 46.8625 135.493 46.9279 134.741 46.9371C134.39 46.9452 134.022 46.9499 133.664 46.9499L132.364 46.9523L10.3357 46.9499Z" fill="black"/>
    <path d="M29.9233 24.3612C29.9362 23.3596 30.2022 22.3775 30.6967 21.5064C31.1911 20.6352 31.8978 19.9033 32.7512 19.3787C32.2091 18.6045 31.4939 17.9674 30.6625 17.5179C29.8311 17.0684 28.9064 16.819 27.9618 16.7895C25.9467 16.578 23.9931 17.9953 22.9663 17.9953C21.9196 17.9953 20.3386 16.8105 18.6361 16.8455C17.5349 16.8811 16.4617 17.2013 15.521 17.775C14.5803 18.3486 13.8043 19.1562 13.2686 20.1189C10.9478 24.137 12.6789 30.0423 14.902 33.2902C16.0143 34.8807 17.3142 36.6572 19.0152 36.5942C20.6796 36.5252 21.3013 35.5328 23.3105 35.5328C25.301 35.5328 25.8842 36.5942 27.6196 36.5541C29.4057 36.5251 30.531 34.9566 31.6043 33.3512C32.4034 32.2179 33.0184 30.9655 33.4264 29.6402C32.3887 29.2013 31.5032 28.4667 30.8803 27.5279C30.2573 26.5892 29.9245 25.4878 29.9233 24.3612Z" fill="white"/>
    <path d="M26.6454 14.6532C27.6192 13.4842 28.099 11.9816 27.9828 10.4645C26.495 10.6207 25.1207 11.3318 24.1337 12.456C23.6511 13.0052 23.2815 13.6441 23.046 14.3363C22.8106 15.0284 22.7138 15.7601 22.7613 16.4897C23.5054 16.4973 24.2416 16.336 24.9144 16.0179C25.5872 15.6998 26.1791 15.2332 26.6454 14.6532Z" fill="white"/>
    <path d="M50.9651 32.5677H45.2851L43.921 36.5954H41.5151L46.8952 21.6938H49.3948L54.7749 36.5954H52.328L50.9651 32.5677ZM45.8733 30.7091H50.3757L48.1562 24.1724H48.0941L45.8733 30.7091Z" fill="white"/>
    <path d="M66.3932 31.1637C66.3932 34.5399 64.5862 36.709 61.8592 36.709C61.1684 36.7452 60.4814 36.5861 59.8769 36.2499C59.2723 35.9137 58.7747 35.4141 58.4409 34.8082H58.3893V40.1895H56.1592V25.7309H58.3178V27.5379H58.3588C58.708 26.935 59.214 26.438 59.8232 26.0997C60.4324 25.7615 61.1218 25.5948 61.8182 25.6172C64.5756 25.6172 66.3932 27.7969 66.3932 31.1637ZM64.101 31.1637C64.101 28.9641 62.9643 27.518 61.2299 27.518C59.526 27.518 58.3799 28.9946 58.3799 31.1637C58.3799 33.3528 59.526 34.8188 61.2299 34.8188C62.9643 34.8188 64.101 33.3833 64.101 31.1637Z" fill="white"/>
    <path d="M78.3522 31.1636C78.3522 34.5398 76.5452 36.7089 73.8182 36.7089C73.1274 36.745 72.4404 36.5859 71.8359 36.2498C71.2313 35.9136 70.7336 35.414 70.3998 34.8081H70.3482V40.1894H68.1182V25.7308H70.2767V27.5378H70.3178C70.6669 26.9349 71.173 26.4378 71.7821 26.0996C72.3913 25.7614 73.0808 25.5947 73.7771 25.6171C76.5346 25.6171 78.3522 27.7968 78.3522 31.1636ZM76.06 31.1636C76.06 28.964 74.9233 27.5179 73.1889 27.5179C71.485 27.5179 70.3389 28.9945 70.3389 31.1636C70.3389 33.3527 71.485 34.8187 73.1889 34.8187C74.9233 34.8187 76.06 33.3831 76.06 31.1636Z" fill="white"/>
    <path d="M86.2555 32.4432C86.4207 33.9209 87.8563 34.8912 89.818 34.8912C91.6977 34.8912 93.05 33.9209 93.05 32.5884C93.05 31.4318 92.2344 30.7392 90.3032 30.2646L88.3719 29.7994C85.6356 29.1384 84.3653 27.8587 84.3653 25.7822C84.3653 23.2111 86.6059 21.4451 89.7875 21.4451C92.9363 21.4451 95.095 23.2111 95.1676 25.7822H92.9164C92.7817 24.2951 91.5524 23.3974 89.7559 23.3974C87.9594 23.3974 86.7301 24.3056 86.7301 25.6275C86.7301 26.681 87.5153 27.3009 89.4359 27.7755L91.0777 28.1786C94.1352 28.9017 95.4055 30.1298 95.4055 32.3095C95.4055 35.0974 93.1848 36.8435 89.6527 36.8435C86.348 36.8435 84.1168 35.1384 83.9727 32.4431L86.2555 32.4432Z" fill="white"/>
    <path d="M100.217 23.1598V25.7309H102.283V27.4969H100.217V33.4864C100.217 34.4168 100.631 34.8504 101.539 34.8504C101.784 34.8461 102.029 34.8289 102.273 34.7988V36.5543C101.864 36.6306 101.449 36.6651 101.034 36.6574C98.8345 36.6574 97.9767 35.8312 97.9767 33.7242V27.4969H96.397V25.7309H97.9766V23.1598H100.217Z" fill="white"/>
    <path d="M103.479 31.1638C103.479 27.7455 105.493 25.5974 108.632 25.5974C111.782 25.5974 113.786 27.7454 113.786 31.1638C113.786 34.5916 111.793 36.7302 108.632 36.7302C105.473 36.7302 103.479 34.5915 103.479 31.1638ZM111.514 31.1638C111.514 28.8189 110.439 27.4349 108.632 27.4349C106.825 27.4349 105.752 28.8294 105.752 31.1638C105.752 33.5181 106.825 34.8916 108.632 34.8916C110.439 34.8916 111.514 33.5181 111.514 31.1638Z" fill="white"/>
    <path d="M115.626 25.7308H117.753V27.58H117.805C117.948 27.0025 118.287 26.4921 118.763 26.1346C119.239 25.7771 119.823 25.5944 120.418 25.6171C120.675 25.6162 120.931 25.6441 121.182 25.7003V27.7863C120.857 27.6871 120.519 27.6416 120.18 27.6515C119.856 27.6384 119.533 27.6955 119.233 27.8189C118.933 27.9424 118.664 28.1293 118.443 28.3668C118.222 28.6042 118.055 28.8867 117.954 29.1947C117.853 29.5027 117.819 29.829 117.856 30.1511V36.5953H115.626L115.626 25.7308Z" fill="white"/>
    <path d="M131.463 33.4043C131.163 35.3766 129.242 36.7301 126.785 36.7301C123.624 36.7301 121.663 34.6125 121.663 31.2153C121.663 27.8074 123.635 25.5973 126.691 25.5973C129.697 25.5973 131.587 27.6621 131.587 30.9563V31.7203H123.914V31.8551C123.878 32.2549 123.928 32.6577 124.061 33.0367C124.193 33.4158 124.404 33.7623 124.681 34.0534C124.957 34.3444 125.292 34.5733 125.664 34.7249C126.036 34.8765 126.435 34.9472 126.836 34.9324C127.363 34.9818 127.892 34.8598 128.344 34.5844C128.796 34.3091 129.147 33.8952 129.345 33.4043L131.463 33.4043ZM123.924 30.1617H129.356C129.376 29.8022 129.321 29.4425 129.196 29.105C129.07 28.7676 128.876 28.4597 128.626 28.2008C128.376 27.9419 128.075 27.7375 127.742 27.6004C127.409 27.4633 127.051 27.3966 126.691 27.4043C126.328 27.4022 125.968 27.4719 125.632 27.6096C125.296 27.7473 124.99 27.9502 124.733 28.2065C124.476 28.4629 124.272 28.7677 124.133 29.1033C123.994 29.4388 123.923 29.7986 123.924 30.1617Z" fill="white"/>
    <path d="M45.5932 10.4774C46.0607 10.4438 46.5298 10.5144 46.9668 10.6842C47.4037 10.8539 47.7975 11.1185 48.1198 11.4588C48.4421 11.7992 48.6849 12.2068 48.8306 12.6523C48.9763 13.0978 49.0213 13.5702 48.9623 14.0352C48.9623 16.3227 47.726 17.6376 45.5932 17.6376H43.0068V10.4774H45.5932ZM44.1189 16.625H45.4689C45.803 16.6449 46.1374 16.5902 46.4476 16.4646C46.7578 16.3391 47.0362 16.1459 47.2624 15.8993C47.4886 15.6526 47.6569 15.3586 47.7552 15.0386C47.8534 14.7187 47.879 14.3809 47.8303 14.0498C47.8755 13.72 47.8473 13.3842 47.7475 13.0666C47.6478 12.749 47.479 12.4574 47.2533 12.2127C47.0277 11.968 46.7506 11.7762 46.4422 11.6512C46.1337 11.5261 45.8013 11.4708 45.4689 11.4892H44.1189V16.625Z" fill="white"/>
    <path d="M50.2181 14.9333C50.1841 14.5782 50.2248 14.2199 50.3374 13.8814C50.45 13.5429 50.6321 13.2317 50.872 12.9678C51.1119 12.7038 51.4044 12.4929 51.7306 12.3485C52.0568 12.2042 52.4096 12.1296 52.7664 12.1296C53.1231 12.1296 53.4759 12.2042 53.8021 12.3485C54.1283 12.4929 54.4208 12.7038 54.6607 12.9678C54.9006 13.2317 55.0827 13.5429 55.1953 13.8814C55.3079 14.2199 55.3486 14.5782 55.3146 14.9333C55.3492 15.2888 55.3091 15.6475 55.1968 15.9866C55.0844 16.3256 54.9025 16.6374 54.6625 16.9019C54.4225 17.1664 54.1298 17.3777 53.8032 17.5224C53.4767 17.667 53.1235 17.7417 52.7664 17.7417C52.4092 17.7417 52.056 17.667 51.7295 17.5224C51.4029 17.3777 51.1102 17.1664 50.8702 16.9019C50.6303 16.6374 50.4483 16.3256 50.3359 15.9866C50.2236 15.6475 50.1835 15.2888 50.2181 14.9333ZM54.2177 14.9333C54.2177 13.762 53.6915 13.077 52.7681 13.077C51.8412 13.077 51.3197 13.762 51.3197 14.9333C51.3197 16.114 51.8412 16.7937 52.7681 16.7937C53.6916 16.7936 54.2177 16.1093 54.2177 14.9333Z" fill="white"/>
    <path d="M62.0896 17.6375H60.9834L59.8666 13.6578H59.7822L58.6701 17.6375H57.5744L56.085 12.234H57.1666L58.1346 16.3572H58.2143L59.3252 12.234H60.3483L61.4592 16.3572H61.5436L62.5068 12.234H63.5732L62.0896 17.6375Z" fill="white"/>
    <path d="M64.8262 12.2339H65.8527V13.0923H65.9324C66.0676 12.784 66.2956 12.5255 66.5847 12.353C66.8737 12.1804 67.2094 12.1023 67.5449 12.1296C67.8078 12.1098 68.0718 12.1495 68.3174 12.2456C68.5629 12.3417 68.7836 12.4918 68.9632 12.6848C69.1429 12.8778 69.2768 13.1088 69.355 13.3606C69.4332 13.6124 69.4538 13.8785 69.4152 14.1393V17.6373H68.3488V14.4071C68.3488 13.5388 67.9715 13.1069 67.1828 13.1069C67.0043 13.0986 66.8261 13.129 66.6604 13.196C66.4948 13.263 66.3456 13.365 66.223 13.4951C66.1005 13.6251 66.0075 13.7802 65.9504 13.9495C65.8934 14.1189 65.8737 14.2986 65.8926 14.4763V17.6374H64.8262L64.8262 12.2339Z" fill="white"/>
    <path d="M71.1138 10.1246H72.1802V17.6375H71.1138V10.1246Z" fill="white"/>
    <path d="M73.6634 14.9333C73.6294 14.5781 73.6701 14.2198 73.7827 13.8813C73.8954 13.5429 74.0775 13.2316 74.3175 12.9676C74.5574 12.7037 74.8499 12.4927 75.1761 12.3484C75.5024 12.2041 75.8552 12.1295 76.2119 12.1295C76.5687 12.1295 76.9215 12.2041 77.2477 12.3484C77.574 12.4927 77.8664 12.7037 78.1064 12.9676C78.3464 13.2316 78.5285 13.5429 78.6411 13.8813C78.7538 14.2198 78.7944 14.5781 78.7605 14.9333C78.795 15.2888 78.7549 15.6475 78.6425 15.9866C78.5302 16.3256 78.3481 16.6374 78.1081 16.9019C77.8681 17.1663 77.5754 17.3777 77.2489 17.5223C76.9223 17.667 76.5691 17.7417 76.2119 17.7417C75.8548 17.7417 75.5016 17.667 75.175 17.5223C74.8484 17.3777 74.5557 17.1663 74.3157 16.9019C74.0757 16.6374 73.8937 16.3256 73.7813 15.9866C73.669 15.6475 73.6288 15.2888 73.6634 14.9333ZM77.663 14.9333C77.663 13.762 77.1368 13.077 76.2134 13.077C75.2864 13.077 74.765 13.762 74.765 14.9333C74.765 16.114 75.2865 16.7936 76.2134 16.7936C77.1368 16.7936 77.663 16.1092 77.663 14.9333Z" fill="white"/>
    <path d="M79.8823 16.1092C79.8823 15.1365 80.6065 14.5758 81.8921 14.4961L83.3558 14.4117V13.9453C83.3558 13.3746 82.9784 13.0524 82.2495 13.0524C81.6542 13.0524 81.2417 13.2709 81.1233 13.653H80.0909C80.1999 12.7248 81.073 12.1295 82.2987 12.1295C83.6534 12.1295 84.4175 12.8039 84.4175 13.9453V17.6373H83.3909V16.878H83.3065C83.1353 17.1503 82.8948 17.3724 82.6097 17.5215C82.3245 17.6705 82.0049 17.7412 81.6835 17.7264C81.4567 17.7499 81.2274 17.7257 81.0105 17.6553C80.7936 17.5849 80.5938 17.4698 80.4241 17.3174C80.2544 17.165 80.1185 16.9788 80.0252 16.7707C79.9319 16.5626 79.8832 16.3373 79.8823 16.1092ZM83.3558 15.6475V15.1957L82.0362 15.2801C81.2921 15.3299 80.9546 15.583 80.9546 16.0594C80.9546 16.5457 81.3765 16.8287 81.9566 16.8287C82.1266 16.8459 82.2983 16.8288 82.4615 16.7783C82.6247 16.7277 82.776 16.6449 82.9066 16.5347C83.0371 16.4245 83.1442 16.2892 83.2213 16.1367C83.2985 15.9843 83.3442 15.8179 83.3558 15.6475Z" fill="white"/>
    <path d="M85.8188 14.9334C85.8188 13.226 86.6966 12.1444 88.0618 12.1444C88.3995 12.1288 88.7347 12.2097 89.0281 12.3776C89.3215 12.5454 89.5611 12.7934 89.7188 13.0924H89.7985V10.1246H90.8649V17.6375H89.8431V16.7838H89.7587C89.5888 17.0808 89.3408 17.3256 89.0417 17.4918C88.7426 17.658 88.4038 17.7392 88.0618 17.7266C86.6872 17.7266 85.8188 16.645 85.8188 14.9334ZM86.9204 14.9334C86.9204 16.0795 87.4607 16.7692 88.3642 16.7692C89.263 16.7692 89.8185 16.0696 89.8185 14.9381C89.8185 13.812 89.2572 13.1024 88.3642 13.1024C87.4665 13.1024 86.9204 13.7967 86.9204 14.9334Z" fill="white"/>
    <path d="M95.2772 14.9333C95.2432 14.5782 95.2838 14.2199 95.3964 13.8814C95.5091 13.5429 95.6912 13.2317 95.9311 12.9678C96.171 12.7038 96.4635 12.4929 96.7897 12.3485C97.1159 12.2042 97.4687 12.1296 97.8254 12.1296C98.1822 12.1296 98.5349 12.2042 98.8612 12.3485C99.1874 12.4929 99.4798 12.7038 99.7198 12.9678C99.9597 13.2317 100.142 13.5429 100.254 13.8814C100.367 14.2199 100.408 14.5782 100.374 14.9333C100.408 15.2888 100.368 15.6475 100.256 15.9866C100.144 16.3256 99.9615 16.6374 99.7215 16.9019C99.4815 17.1664 99.1889 17.3777 98.8623 17.5224C98.5358 17.667 98.1826 17.7417 97.8254 17.7417C97.4683 17.7417 97.1151 17.667 96.7885 17.5224C96.462 17.3777 96.1693 17.1664 95.9293 16.9019C95.6893 16.6374 95.5073 16.3256 95.395 15.9866C95.2827 15.6475 95.2426 15.2888 95.2772 14.9333ZM99.2768 14.9333C99.2768 13.762 98.7506 13.077 97.8272 13.077C96.9002 13.077 96.3788 13.762 96.3788 14.9333C96.3788 16.114 96.9003 16.7937 97.8272 16.7937C98.7506 16.7936 99.2768 16.1093 99.2768 14.9333Z" fill="white"/>
    <path d="M101.805 12.2339H102.831V13.0923H102.911C103.046 12.784 103.274 12.5255 103.563 12.353C103.852 12.1804 104.188 12.1023 104.523 12.1296C104.786 12.1098 105.05 12.1495 105.296 12.2456C105.541 12.3417 105.762 12.4918 105.942 12.6848C106.121 12.8778 106.255 13.1088 106.334 13.3606C106.412 13.6124 106.432 13.8785 106.394 14.1393V17.6373H105.327V14.4071C105.327 13.5388 104.95 13.1069 104.161 13.1069C103.983 13.0986 103.805 13.129 103.639 13.196C103.473 13.263 103.324 13.365 103.202 13.4951C103.079 13.6251 102.986 13.7802 102.929 13.9495C102.872 14.1189 102.852 14.2986 102.871 14.4763V17.6374H101.805V12.2339Z" fill="white"/>
    <path d="M112.42 10.8888V12.2587H113.591V13.157H112.42V15.9355C112.42 16.5015 112.653 16.7493 113.184 16.7493C113.32 16.7489 113.456 16.7407 113.591 16.7247V17.613C113.399 17.6473 113.205 17.6655 113.011 17.6675C111.825 17.6675 111.352 17.2503 111.352 16.2085V13.1569H110.495V12.2587H111.352V10.8888H112.42Z" fill="white"/>
    <path d="M115.047 10.1246H116.104V13.1024H116.188C116.33 12.7912 116.564 12.5313 116.859 12.3581C117.154 12.1848 117.495 12.1067 117.836 12.1344C118.097 12.1202 118.359 12.1638 118.602 12.2623C118.844 12.3607 119.062 12.5115 119.24 12.704C119.418 12.8964 119.551 13.1256 119.63 13.3754C119.709 13.6251 119.732 13.8892 119.697 14.1489V17.6375H118.629V14.4119C118.629 13.5488 118.227 13.1117 117.474 13.1117C117.291 13.0967 117.106 13.1219 116.934 13.1856C116.761 13.2492 116.605 13.3498 116.475 13.4803C116.345 13.6108 116.246 13.768 116.183 13.941C116.121 14.1139 116.097 14.2985 116.113 14.4817V17.6375H115.047L115.047 10.1246Z" fill="white"/>
    <path d="M125.915 16.1783C125.77 16.6722 125.456 17.0993 125.028 17.3851C124.6 17.6709 124.085 17.7971 123.573 17.7416C123.217 17.751 122.864 17.6828 122.537 17.5418C122.21 17.4007 121.917 17.1902 121.68 16.9249C121.442 16.6595 121.265 16.3456 121.161 16.005C121.057 15.6645 121.029 15.3053 121.077 14.9525C121.03 14.5987 121.059 14.2388 121.163 13.8971C121.267 13.5555 121.443 13.2402 121.679 12.9725C121.915 12.7048 122.206 12.491 122.532 12.3456C122.858 12.2001 123.212 12.1264 123.569 12.1295C125.072 12.1295 125.979 13.1567 125.979 14.8535V15.2256H122.164V15.2854C122.147 15.4836 122.172 15.6832 122.237 15.8713C122.302 16.0594 122.405 16.2319 122.541 16.3776C122.676 16.5234 122.841 16.6392 123.024 16.7177C123.206 16.7962 123.404 16.8356 123.603 16.8334C123.858 16.864 124.116 16.818 124.345 16.7014C124.574 16.5847 124.763 16.4027 124.888 16.1783L125.915 16.1783ZM122.164 14.4369H124.893C124.906 14.2556 124.882 14.0734 124.82 13.9021C124.759 13.7309 124.663 13.5743 124.538 13.4425C124.413 13.3106 124.261 13.2065 124.093 13.1367C123.925 13.0668 123.745 13.0329 123.563 13.0371C123.378 13.0348 123.195 13.0694 123.024 13.139C122.854 13.2085 122.698 13.3115 122.568 13.442C122.438 13.5724 122.335 13.7277 122.265 13.8985C122.196 14.0694 122.161 14.2525 122.164 14.4369Z" fill="white"/>
  </g>
  <defs>
    <clipPath id="clip0_42546_23042">
      <rect width="143.597" height="48" fill="white" transform="translate(0.20166)"/>
    </clipPath>
  </defs>
</svg>
