<svg xmlns="http://www.w3.org/2000/svg" width="163" height="48" viewBox="0 0 163 48" fill="none">
  <path d="M156.798 0H6.79834C3.48463 0 0.79834 2.68629 0.79834 6V42C0.79834 45.3137 3.48463 48 6.79834 48H156.798C160.112 48 162.798 45.3137 162.798 42V6C162.798 2.68629 160.112 0 156.798 0Z" fill="black"/>
  <path d="M156.798 0.96C159.582 0.96 161.838 3.216 161.838 6V42C161.838 44.784 159.582 47.04 156.798 47.04H6.79834C4.01434 47.04 1.75834 44.784 1.75834 42V6C1.75834 3.216 4.01434 0.96 6.79834 0.96H156.798ZM156.798 0H6.79834C3.49834 0 0.79834 2.7 0.79834 6V42C0.79834 45.3 3.49834 48 6.79834 48H156.798C160.098 48 162.798 45.3 162.798 42V6C162.798 2.7 160.098 0 156.798 0Z" fill="#A6A6A6"/>
  <path d="M57.7025 12.288C57.7025 13.296 57.4025 14.1 56.8025 14.688C56.1305 15.396 55.2425 15.756 54.1625 15.756C53.0825 15.756 52.2425 15.396 51.5105 14.676C50.7785 13.956 50.4185 13.056 50.4185 12C50.4185 10.944 50.7785 10.044 51.5105 9.32402C52.2425 8.60402 53.1185 8.24402 54.1625 8.24402C54.6785 8.24402 55.1705 8.34002 55.6385 8.54402C56.1065 8.74802 56.4785 9.01202 56.7665 9.34802L56.1305 9.98402C55.6505 9.42002 55.0025 9.13202 54.1625 9.13202C53.4065 9.13202 52.7465 9.39602 52.1945 9.93602C51.6425 10.464 51.3665 11.16 51.3665 12.012C51.3665 12.864 51.6425 13.56 52.1945 14.088C52.7465 14.616 53.4065 14.892 54.1625 14.892C54.9665 14.892 55.6385 14.628 56.1785 14.088C56.5265 13.74 56.7305 13.248 56.7785 12.624H54.1625V11.76H57.6545C57.6905 11.952 57.7025 12.132 57.7025 12.3V12.288Z" fill="white" stroke="white" stroke-width="0.24" stroke-miterlimit="10"/>
  <path d="M63.2342 9.28802H59.9582V11.568H62.9102V12.432H59.9582V14.712H63.2342V15.6H59.0342V8.40002H63.2342V9.28802Z" fill="white" stroke="white" stroke-width="0.24" stroke-miterlimit="10"/>
  <path d="M67.1343 15.6H66.2103V9.28802H64.1943V8.40002H69.1383V9.28802H67.1223V15.6H67.1343Z" fill="white" stroke="white" stroke-width="0.24" stroke-miterlimit="10"/>
  <path d="M72.7266 15.6V8.40002H73.6506V15.6H72.7266Z" fill="white" stroke="white" stroke-width="0.24" stroke-miterlimit="10"/>
  <path d="M77.7544 15.6H76.8305V9.28802H74.8145V8.40002H79.7585V9.28802H77.7425V15.6H77.7544Z" fill="white" stroke="white" stroke-width="0.24" stroke-miterlimit="10"/>
  <path d="M89.1304 14.664C88.4224 15.396 87.5464 15.756 86.4904 15.756C85.4344 15.756 84.5584 15.396 83.8504 14.664C83.1424 13.932 82.7944 13.044 82.7944 12C82.7944 10.956 83.1424 10.056 83.8504 9.33602C84.5584 8.60402 85.4344 8.24402 86.4904 8.24402C87.5464 8.24402 88.4104 8.60402 89.1304 9.33602C89.8384 10.068 90.1984 10.956 90.1984 12C90.1984 13.044 89.8384 13.944 89.1424 14.664H89.1304ZM84.5344 14.064C85.0624 14.604 85.7224 14.868 86.4904 14.868C87.2584 14.868 87.9184 14.604 88.4464 14.064C88.9744 13.524 89.2504 12.84 89.2504 12C89.2504 11.16 88.9864 10.476 88.4464 9.93602C87.9184 9.39602 87.2584 9.13202 86.4904 9.13202C85.7224 9.13202 85.0624 9.39602 84.5344 9.93602C84.0064 10.476 83.7304 11.16 83.7304 12C83.7304 12.84 83.9944 13.524 84.5344 14.064Z" fill="white" stroke="white" stroke-width="0.24" stroke-miterlimit="10"/>
  <path d="M91.4946 15.6V8.40002H92.6226L96.1266 14.004H96.1626L96.1266 12.612V8.40002H97.0506V15.6H96.0906L92.4306 9.73203H92.3946L92.4306 11.124V15.612H91.5066L91.4946 15.6Z" fill="white" stroke="white" stroke-width="0.24" stroke-miterlimit="10"/>
  <path d="M82.5666 26.1C79.7466 26.1 77.4426 28.248 77.4426 31.2C77.4426 34.152 79.7466 36.3 82.5666 36.3C85.3866 36.3 87.6906 34.14 87.6906 31.2C87.6906 28.26 85.3866 26.1 82.5666 26.1ZM82.5666 34.296C81.0186 34.296 79.6866 33.024 79.6866 31.2C79.6866 29.376 81.0186 28.104 82.5666 28.104C84.1146 28.104 85.4466 29.364 85.4466 31.2C85.4466 33.036 84.1146 34.296 82.5666 34.296ZM71.3946 26.1C68.5746 26.1 66.2706 28.248 66.2706 31.2C66.2706 34.152 68.5746 36.3 71.3946 36.3C74.2146 36.3 76.5186 34.14 76.5186 31.2C76.5186 28.26 74.2146 26.1 71.3946 26.1ZM71.3946 34.296C69.8466 34.296 68.5146 33.024 68.5146 31.2C68.5146 29.376 69.8466 28.104 71.3946 28.104C72.9426 28.104 74.2746 29.364 74.2746 31.2C74.2746 33.036 72.9426 34.296 71.3946 34.296ZM58.0986 27.66V29.82H63.2826C63.1266 31.044 62.7186 31.932 62.1066 32.544C61.3506 33.3 60.1746 34.128 58.1106 34.128C54.9186 34.128 52.4226 31.56 52.4226 28.368C52.4226 25.176 54.9186 22.608 58.1106 22.608C59.8266 22.608 61.0866 23.28 62.0106 24.156L63.5346 22.632C62.2386 21.396 60.5226 20.448 58.0986 20.448C53.7306 20.448 50.0586 24 50.0586 28.38C50.0586 32.76 53.7306 36.312 58.0986 36.312C60.4626 36.312 62.2386 35.544 63.6306 34.092C65.0586 32.664 65.5026 30.648 65.5026 29.028C65.5026 28.524 65.4666 28.056 65.3826 27.672H58.0986V27.66ZM112.471 29.34C112.051 28.2 110.755 26.088 108.103 26.088C105.451 26.088 103.291 28.152 103.291 31.188C103.291 34.044 105.451 36.288 108.355 36.288C110.695 36.288 112.051 34.86 112.603 34.032L110.863 32.868C110.287 33.72 109.495 34.284 108.355 34.284C107.215 34.284 106.399 33.756 105.883 32.736L112.711 29.916L112.483 29.34H112.471ZM105.511 31.044C105.451 29.076 107.035 28.068 108.175 28.068C109.063 28.068 109.819 28.512 110.071 29.148L105.511 31.044ZM99.9666 35.988H102.211V20.988H99.9666V35.988ZM96.2946 27.228H96.2226C95.7186 26.628 94.7586 26.088 93.5346 26.088C90.9786 26.088 88.6386 28.332 88.6386 31.212C88.6386 34.092 90.9786 36.3 93.5346 36.3C94.7586 36.3 95.7186 35.76 96.2226 35.136H96.2946V35.868C96.2946 37.824 95.2506 38.868 93.5706 38.868C92.2026 38.868 91.3506 37.884 91.0026 37.056L89.0466 37.872C89.6106 39.228 91.0986 40.884 93.5706 40.884C96.1986 40.884 98.4186 39.336 98.4186 35.568V26.4H96.2946V27.228ZM93.7266 34.284C92.1786 34.284 90.8826 32.988 90.8826 31.212C90.8826 29.436 92.1786 28.104 93.7266 28.104C95.2746 28.104 96.4506 29.424 96.4506 31.212C96.4506 33 95.2506 34.284 93.7266 34.284ZM122.983 20.988H117.619V35.988H119.863V30.3H122.995C125.479 30.3 127.915 28.5 127.915 25.644C127.915 22.788 125.479 20.988 122.995 20.988H122.983ZM123.043 28.224H119.863V23.076H123.043C124.723 23.076 125.671 24.468 125.671 25.644C125.671 26.82 124.723 28.212 123.043 28.212V28.224ZM136.879 26.064C135.259 26.064 133.579 26.784 132.883 28.356L134.875 29.184C135.295 28.356 136.087 28.08 136.915 28.08C138.067 28.08 139.255 28.776 139.267 30.012V30.168C138.859 29.94 137.995 29.592 136.927 29.592C134.779 29.592 132.607 30.768 132.607 32.964C132.607 34.968 134.359 36.264 136.327 36.264C137.827 36.264 138.667 35.592 139.183 34.8H139.255V35.964H141.415V30.216C141.415 27.552 139.423 26.064 136.855 26.064H136.879ZM136.603 34.284C135.871 34.284 134.851 33.912 134.851 33.012C134.851 31.86 136.123 31.416 137.227 31.416C138.211 31.416 138.679 31.632 139.267 31.92C139.099 33.312 137.899 34.296 136.603 34.296V34.284ZM149.299 26.388L146.731 32.892H146.659L143.995 26.388H141.583L145.579 35.484L143.299 40.536H145.639L151.795 26.388H149.311H149.299ZM129.127 35.988H131.371V20.988H129.127V35.988Z" fill="white"/>
  <path d="M25.6623 23.304L12.8823 36.864C13.2783 38.34 14.6223 39.42 16.2183 39.42C16.8543 39.42 17.4543 39.252 17.9703 38.94L18.0063 38.916L32.3823 30.624L25.6503 23.292L25.6623 23.304Z" fill="#EA4335"/>
  <path d="M38.5865 20.9999H38.5745L32.3705 17.3879L25.3745 23.6159L32.3945 30.6359L38.5745 27.0719C39.6545 26.4839 40.3865 25.3439 40.3865 24.0359C40.3865 22.7279 39.6665 21.5879 38.5865 21.0119V20.9999Z" fill="#FBBC04"/>
  <path d="M12.8822 11.136C12.8102 11.424 12.7622 11.712 12.7622 12.024V35.988C12.7622 36.3 12.7982 36.588 12.8822 36.876L26.0942 23.664L12.8822 11.136Z" fill="#4285F4"/>
  <path d="M25.7583 24L32.3703 17.388L18.0063 9.05999C17.4903 8.74799 16.8783 8.56799 16.2183 8.56799C14.6223 8.56799 13.2783 9.65999 12.8823 11.124L25.7583 23.988V24Z" fill="#34A853"/>
</svg>
